<?xml version="1.0" encoding="iso-8859-1"?>
<!-- Uploaded to: SVG Repo, www.svgrepo.com, Generator: SVG Repo Mixer Tools -->
<svg fill="black" version="1.1" id="Layer_1" xmlns="http://www.w3.org/2000/svg" xmlns:xlink="http://www.w3.org/1999/xlink"
	 viewBox="0 0 503.606 503.606" xml:space="preserve" height="24px">
<g>
	<g>
		<g>
			<polygon points="285.374,191.068 285.374,151.082 218.227,151.082 218.227,191.068 204.646,218.23 298.955,218.23 			"/>
			<rect x="201.441" y="235.015" width="100.721" height="184.656"/>
			<path d="M270.558,41.682L259.84,5.985C258.774,2.434,255.509,0,251.799,0c-3.702,0-6.975,2.434-8.041,5.984l-10.71,35.697
				c-9.031,30.107-13.765,61.23-14.512,92.613h66.535C284.323,102.912,279.589,71.789,270.558,41.682z"/>
			<path d="M294.703,458.164c0.26-0.688,0.537-1.368,0.713-2.09l4.902-19.615h-97.037l4.893,19.615
				c0.185,0.722,0.453,1.402,0.722,2.09c-4.516,3.794-7.453,9.417-7.453,15.763v8.998c0,11.407,9.275,20.681,20.681,20.681h59.358
				c11.398,0,20.681-9.275,20.681-20.681v-8.998C302.165,467.581,299.228,461.957,294.703,458.164z"/>
		</g>
	</g>
</g>
</svg>